# xmcd
#
# Track frame offsets:
#	150
#	10194
#	21301
#	34095
#	45202
#	57644
#	77974
#	90508
#	101386
#	114945
#	125693
#	137005
#	147308
#	153935
#	163199
#
# Disc length: 2284 seconds
#
# Revision: 0
# Processed by: cddbd v1.5.1PL0 Copyright (c) Steve Scherf et al.
# Submitted via: dBpowerAMP V4.0
#
DISCID=be08ea0f
DTITLE=Los Gatos - Los Gatos
DYEAR=1900
DGENRE=
TTITLE0=El niño y el mar
TTITLE1=Hoy amaneció
TTITLE2=Los payasos no saben reir
TTITLE3=La mujer sin nombre
TTITLE4=Dejame buscar felicidad
TTITLE5=Una nube en tu vida
TTITLE6=Viento, dile a la lluvia
TTITLE7=Las vacaciones
TTITLE8=Donde está esa promesa
TTITLE9=De nuevo en el camino
TTITLE10=La canción del hombre feo
TTITLE11=Un dia de fiesta
TTITLE12=Hoy soy muy pobre
TTITLE13=Ya soy un hombre
TTITLE14=El anochecer
EXTD=
EXTT0=
EXTT1=
EXTT2=
EXTT3=
EXTT4=
EXTT5=
EXTT6=
EXTT7=
EXTT8=
EXTT9=
EXTT10=
EXTT11=
EXTT12=
EXTT13=
EXTT14=
PLAYORDER=
